<svg xmlns="http://www.w3.org/2000/svg" xmlns:xlink="http://www.w3.org/1999/xlink" width="500" zoomAndPan="magnify" viewBox="0 0 375 374.999991" height="500" preserveAspectRatio="xMidYMid meet" version="1.0"><defs><g/><clipPath id="06a06fa3ee"><path d="M 84.03125 43.234375 L 304.53125 43.234375 L 304.53125 262 L 84.03125 262 Z M 84.03125 43.234375 " clip-rule="nonzero"/></clipPath></defs><g clip-path="url(#06a06fa3ee)"><path fill="#0f5765" d="M 291.734375 164.664062 C 295.023438 165.144531 297.960938 165.664062 300.285156 167.582031 C 304.339844 170.941406 304.917969 177.261719 304.460938 182.039062 C 304.175781 185.046875 303.429688 188.320312 302.144531 191.574219 C 300.691406 195.269531 298.527344 198.988281 295.53125 202.371094 C 294.386719 203.664062 293.121094 204.902344 291.734375 206.066406 L 291.734375 209.839844 C 291.75 210.027344 291.757812 210.207031 291.757812 210.398438 L 291.757812 248.339844 C 291.757812 252.316406 290.476562 255.582031 288.109375 258.027344 C 285.652344 260.558594 282.355469 261.875 278.421875 261.875 L 98.007812 261.875 C 94.199219 261.875 90.746094 260.359375 88.234375 257.871094 C 85.691406 255.355469 84.125 251.914062 84.125 248.070312 L 84.125 116.679688 C 84.125 113.296875 84.882812 109.570312 86.921875 105.960938 C 88.335938 103.464844 90.359375 101.085938 93.167969 99.027344 C 93.527344 98.761719 93.90625 98.496094 94.304688 98.234375 C 94.433594 98.148438 94.5625 98.054688 94.699219 97.976562 C 94.699219 97.976562 129.6875 75.839844 129.6875 75.839844 L 174.070312 47.75 C 178.589844 44.890625 181.777344 43.191406 187.949219 43.234375 C 192.128906 43.261719 196.347656 44.339844 199.910156 46.542969 L 277.878906 95.875 C 278.792969 96.453125 279.859375 97.089844 280.730469 97.710938 C 283.933594 99.976562 286.472656 103.074219 288.324219 106.441406 C 290.527344 110.414062 291.75 114.882812 291.75 119.222656 L 291.726562 153.304688 L 291.726562 164.671875 Z M 291.734375 164.664062 " fill-opacity="1" fill-rule="evenodd"/></g><path fill="#faf9f9" d="M 112.035156 168.910156 Z M 181.085938 187.664062 L 181.105469 194.597656 L 181.226562 206.039062 L 181.328125 213.109375 C 181.421875 219.578125 181.5 225.890625 181.5 231.074219 C 181.5 232.984375 179.949219 234.535156 178.039062 234.535156 C 176.128906 234.535156 174.578125 232.984375 174.578125 231.074219 C 174.578125 223.746094 174.5 217.664062 174.414062 211.65625 L 162.425781 209.132812 C 160.558594 208.746094 159.363281 206.917969 159.75 205.050781 C 160.136719 203.179688 161.960938 201.984375 163.832031 202.371094 L 174.3125 204.578125 L 174.214844 195.113281 L 164.820312 195.828125 C 162.917969 195.964844 161.257812 194.542969 161.117188 192.640625 C 160.972656 190.738281 162.402344 189.078125 164.304688 188.9375 L 174.179688 188.179688 C 174.207031 175.316406 174.585938 162.363281 175.9375 149.316406 C 173.914062 150.9375 171.605469 152.8125 169.96875 154.269531 L 154.6875 168.253906 C 153.644531 169.289062 152.007812 169.570312 150.648438 168.839844 C 150.621094 168.824219 140.976562 163.664062 131.359375 163.964844 C 121.601562 164.265625 112.070312 168.898438 112.035156 168.910156 C 111.042969 169.382812 109.847656 169.382812 108.820312 168.796875 L 91.339844 158.738281 L 91.339844 188.664062 L 99.78125 189.09375 C 101.683594 189.1875 103.148438 190.816406 103.050781 192.71875 C 102.957031 194.621094 101.332031 196.085938 99.425781 195.992188 L 91.339844 195.578125 L 91.339844 204.113281 L 98.558594 202.414062 C 100.417969 201.984375 102.277344 203.136719 102.707031 205 C 103.140625 206.859375 101.984375 208.71875 100.125 209.148438 L 91.339844 211.214844 L 91.339844 248.089844 C 91.339844 251.792969 94.292969 254.667969 97.996094 254.667969 L 278.414062 254.667969 C 282.246094 254.667969 284.527344 252.445312 284.527344 248.355469 L 284.527344 210.414062 C 283.011719 211.171875 281.398438 211.84375 279.6875 212.421875 C 274.734375 214.09375 268.820312 215.289062 262.628906 215.882812 C 258.21875 216.304688 253.644531 216.441406 249.152344 216.234375 C 245.050781 216.734375 242.71875 218.640625 239.832031 220.980469 C 238.578125 221.996094 237.222656 223.097656 235.527344 224.277344 C 231.996094 226.742188 226.3125 227.816406 221.628906 227.15625 C 219.984375 226.921875 218.425781 226.484375 217.058594 225.828125 C 215.515625 225.089844 214.199219 224.046875 213.257812 222.695312 C 212.097656 221.023438 211.554688 219.019531 211.882812 216.648438 C 212.597656 211.535156 215.78125 208.097656 218.667969 205.988281 C 216.703125 204 215.214844 201.691406 214.328125 199.058594 C 213.914062 197.824219 213.628906 196.523438 213.492188 195.148438 C 213.3125 193.253906 214.707031 191.566406 216.601562 191.394531 C 218.496094 191.210938 220.183594 192.605469 220.355469 194.5 C 220.433594 195.328125 220.605469 196.121094 220.863281 196.871094 C 221.757812 199.511719 223.730469 201.710938 226.453125 203.484375 L 226.804688 203.707031 C 229.199219 205.195312 232.125 206.386719 235.390625 207.28125 C 239.53125 208.417969 244.175781 209.082031 248.953125 209.328125 C 249.082031 209.328125 249.21875 209.328125 249.347656 209.347656 C 253.535156 209.546875 257.8125 209.425781 261.964844 209.019531 C 267.632812 208.46875 273.003906 207.390625 277.480469 205.886719 C 279.203125 205.308594 280.789062 204.609375 282.253906 203.835938 C 289.011719 200.21875 293.199219 194.578125 295.402344 188.972656 C 297.5625 183.46875 297.832031 178.15625 296.746094 174.929688 C 296.625 174.574219 296.496094 174.265625 296.359375 174.007812 C 294.851562 171.199219 285.566406 171.457031 277.578125 171.691406 C 271.660156 171.855469 266.332031 172.007812 263.378906 170.664062 C 258.082031 168.261719 257.304688 162.425781 256.351562 155.199219 C 255.824219 151.230469 255.230469 146.734375 253.699219 142.453125 C 250.546875 133.628906 246.121094 130.734375 245.085938 130.15625 C 244.328125 129.847656 243.683594 129.269531 243.296875 128.480469 L 234.625 110.722656 L 225.503906 124.792969 C 224.867188 125.765625 223.757812 126.402344 222.507812 126.359375 L 206.285156 125.816406 C 205.097656 125.785156 203.949219 125.121094 203.355469 123.992188 L 192.652344 103.996094 C 182.921875 132.226562 181.132812 160.125 181.0625 187.679688 Z M 206.308594 125.792969 Z M 116.847656 175.945312 C 118.992188 175.945312 120.730469 178.296875 120.730469 181.195312 C 120.730469 184.097656 118.992188 186.441406 116.847656 186.441406 C 114.703125 186.441406 112.964844 184.089844 112.964844 181.195312 C 112.964844 178.304688 114.703125 175.945312 116.847656 175.945312 Z M 145.273438 175.945312 C 147.417969 175.945312 149.15625 178.296875 149.15625 181.195312 C 149.15625 184.097656 147.417969 186.441406 145.273438 186.441406 C 143.128906 186.441406 141.390625 184.089844 141.390625 181.195312 C 141.390625 178.304688 143.128906 175.945312 145.273438 175.945312 Z M 142.5625 195.042969 C 142.484375 194.164062 142.757812 193.339844 143.265625 192.703125 C 143.808594 192.019531 144.617188 191.554688 145.558594 191.480469 C 147.375 191.324219 148.96875 192.667969 149.121094 194.476562 C 149.164062 195.035156 149.164062 195.585938 149.105469 196.128906 C 148.820312 198.746094 147.339844 201.175781 145.257812 202.863281 C 144 203.886719 142.5 204.652344 140.898438 205.050781 C 139.226562 205.453125 137.453125 205.453125 135.714844 204.914062 C 134.183594 204.4375 132.710938 203.558594 131.410156 202.199219 C 130.109375 203.558594 128.636719 204.4375 127.105469 204.914062 C 125.363281 205.453125 123.589844 205.453125 121.917969 205.050781 C 120.316406 204.652344 118.820312 203.886719 117.5625 202.863281 C 115.046875 200.820312 113.421875 197.703125 113.695312 194.46875 C 113.851562 192.660156 115.445312 191.316406 117.261719 191.46875 C 119.070312 191.625 120.414062 193.226562 120.257812 195.035156 C 120.171875 195.992188 120.78125 197.015625 121.703125 197.765625 C 122.230469 198.1875 122.839844 198.503906 123.46875 198.660156 C 124.039062 198.796875 124.625 198.808594 125.183594 198.625 C 126.277344 198.28125 127.378906 197.207031 128.242188 195.042969 C 128.507812 194.0625 129.230469 193.210938 130.265625 192.832031 C 130.625 192.691406 130.996094 192.632812 131.367188 192.625 L 131.390625 192.625 C 131.390625 192.625 131.453125 192.625 131.453125 192.625 L 131.476562 192.625 C 131.847656 192.625 132.21875 192.691406 132.582031 192.832031 C 133.613281 193.21875 134.335938 194.0625 134.605469 195.042969 C 135.464844 197.207031 136.566406 198.28125 137.660156 198.625 C 138.222656 198.796875 138.804688 198.796875 139.375 198.660156 C 140.003906 198.503906 140.613281 198.1875 141.140625 197.765625 C 142.0625 197.015625 142.664062 195.992188 142.585938 195.035156 Z M 218.847656 164.09375 C 216.703125 164.09375 214.964844 161.746094 214.964844 158.851562 C 214.964844 155.957031 216.703125 153.597656 218.847656 153.597656 C 220.992188 153.597656 222.730469 155.949219 222.730469 158.851562 C 222.730469 161.753906 220.992188 164.09375 218.847656 164.09375 Z M 240.917969 158.851562 C 240.917969 155.949219 242.660156 153.597656 244.800781 153.597656 C 246.945312 153.597656 248.6875 155.949219 248.6875 158.851562 C 248.6875 161.753906 246.945312 164.09375 244.800781 164.09375 C 242.660156 164.09375 240.917969 161.746094 240.917969 158.851562 Z M 270.085938 183.796875 C 270.085938 179.648438 274.804688 176.28125 280.625 176.28125 C 286.445312 176.28125 291.164062 179.648438 291.164062 183.796875 C 291.164062 187.949219 286.445312 191.316406 280.625 191.316406 C 274.804688 191.316406 270.085938 187.949219 270.085938 183.796875 Z M 270.085938 183.796875 " fill-opacity="1" fill-rule="evenodd"/><path fill="#f0e5d5" d="M 250.546875 216.269531 C 251.296875 220.972656 253.070312 232.496094 254.066406 242.171875 C 254.644531 247.769531 254.609375 251.730469 254.867188 254.660156 L 278.421875 254.660156 C 282.253906 254.660156 284.535156 252.4375 284.535156 248.347656 L 284.535156 210.40625 C 283.019531 211.164062 281.410156 211.835938 279.695312 212.414062 C 274.742188 214.082031 268.828125 215.28125 262.636719 215.875 C 258.675781 216.253906 254.585938 216.398438 250.539062 216.277344 Z M 250.546875 216.269531 " fill-opacity="1" fill-rule="evenodd"/><path fill="#d4dfdf" d="M 177.210938 139.105469 C 179.355469 124.320312 182.949219 109.40625 188.882812 94.328125 C 189.578125 92.554688 191.578125 91.675781 193.359375 92.363281 C 194.230469 92.699219 194.882812 93.355469 195.246094 94.144531 L 208.53125 118.972656 L 220.820312 119.386719 L 232.195312 101.820312 C 233.230469 100.214844 235.375 99.769531 236.964844 100.800781 C 237.507812 101.15625 237.921875 101.636719 238.199219 102.179688 L 249.097656 124.519531 C 251.40625 126.015625 256.761719 130.375 260.242188 140.113281 C 261.980469 144.988281 262.636719 149.921875 263.214844 154.285156 C 263.894531 159.402344 264.4375 163.535156 266.246094 164.351562 C 267.792969 165.058594 272.359375 164.929688 277.421875 164.785156 C 279.746094 164.714844 282.167969 164.644531 284.542969 164.664062 L 284.542969 119.214844 C 284.542969 113.003906 281.054688 106.398438 275.484375 102.878906 C 275.476562 102.878906 275.46875 102.859375 275.449219 102.859375 L 196.070312 52.640625 C 196.070312 52.640625 196.054688 52.632812 196.046875 52.621094 C 191.9375 50.023438 184.902344 49.445312 180.019531 52.5 L 179.984375 52.527344 L 98.53125 104.058594 L 98.480469 104.082031 C 93.003906 107.570312 91.339844 112.46875 91.339844 116.671875 L 91.339844 150.773438 L 110.726562 161.933594 C 114.203125 160.460938 122.539062 157.335938 131.160156 157.066406 C 139.53125 156.808594 147.796875 159.96875 151.644531 161.683594 L 165.3125 149.179688 L 165.492188 149.023438 L 177.203125 139.089844 Z M 177.210938 139.105469 " fill-opacity="1" fill-rule="evenodd"/><path fill="#c7c6c2" d="M 112.035156 168.910156 Z M 131.890625 163.957031 C 131.753906 169.496094 130.394531 183.246094 121.058594 197.144531 C 120.515625 196.5 120.207031 195.757812 120.265625 195.050781 C 120.421875 193.246094 119.078125 191.640625 117.269531 191.488281 C 115.453125 191.332031 113.859375 192.675781 113.703125 194.484375 C 113.445312 197.5 114.832031 200.398438 117.054688 202.433594 C 110.347656 209.941406 100.453125 213.515625 91.351562 215.152344 L 91.351562 211.214844 L 100.132812 209.148438 C 101.992188 208.71875 103.148438 206.859375 102.714844 205 C 102.285156 203.136719 100.425781 201.984375 98.566406 202.414062 L 91.351562 204.113281 L 91.351562 195.578125 L 99.4375 195.992188 C 101.339844 196.085938 102.964844 194.621094 103.0625 192.71875 C 103.15625 190.816406 101.691406 189.195312 99.789062 189.09375 L 91.351562 188.664062 L 91.351562 158.738281 L 108.832031 168.796875 C 109.855469 169.382812 111.050781 169.390625 112.042969 168.910156 C 112.078125 168.910156 121.601562 164.265625 131.367188 163.964844 L 131.898438 163.964844 Z M 116.847656 175.945312 C 114.703125 175.945312 112.964844 178.296875 112.964844 181.195312 C 112.964844 184.097656 114.703125 186.441406 116.847656 186.441406 C 118.992188 186.441406 120.730469 184.089844 120.730469 181.195312 C 120.730469 178.304688 118.992188 175.945312 116.847656 175.945312 Z M 116.847656 175.945312 " fill-opacity="1" fill-rule="evenodd"/><path fill="#f0e5d5" d="M 178.382812 254.660156 L 177.96875 234.542969 L 178.039062 234.542969 C 179.949219 234.542969 181.5 232.992188 181.5 231.082031 C 181.5 225.898438 181.414062 219.578125 181.328125 213.117188 L 181.226562 206.050781 L 181.105469 194.605469 L 181.085938 187.671875 C 181.164062 160.117188 182.949219 132.214844 192.679688 103.988281 L 203.382812 123.984375 C 203.984375 125.113281 205.121094 125.765625 206.308594 125.808594 L 222.535156 126.351562 C 223.78125 126.394531 224.902344 125.757812 225.53125 124.785156 L 234.648438 110.714844 L 243.320312 128.46875 C 243.707031 129.261719 244.355469 129.839844 245.113281 130.148438 C 246.136719 130.726562 250.570312 133.621094 253.722656 142.445312 C 255.246094 146.726562 255.84375 151.210938 256.375 155.191406 C 257.332031 162.414062 258.105469 168.253906 263.402344 170.65625 C 264.109375 170.976562 264.953125 171.214844 265.898438 171.378906 C 264.945312 172.507812 263.375 173.808594 261.007812 174.316406 C 256.496094 175.28125 245.535156 176.253906 240.53125 165.128906 C 235.535156 154.003906 234.726562 139.976562 232.472656 139.328125 C 230.214844 138.683594 227.148438 140.785156 231.015625 157.066406 C 234.882812 173.351562 238.914062 179.320312 233.753906 182.222656 C 228.597656 185.125 212.957031 173.035156 208.601562 184.796875 C 204.242188 196.566406 206.179688 232.796875 208.601562 254.667969 L 178.375 254.667969 Z M 206.308594 125.792969 Z M 218.847656 164.09375 C 220.992188 164.09375 222.730469 161.746094 222.730469 158.851562 C 222.730469 155.957031 220.992188 153.597656 218.847656 153.597656 C 216.703125 153.597656 214.964844 155.949219 214.964844 158.851562 C 214.964844 161.753906 216.703125 164.09375 218.847656 164.09375 Z M 240.917969 158.851562 C 240.917969 161.753906 242.660156 164.09375 244.800781 164.09375 C 246.945312 164.09375 248.6875 161.746094 248.6875 158.851562 C 248.6875 155.957031 246.945312 153.597656 244.800781 153.597656 C 242.660156 153.597656 240.917969 155.949219 240.917969 158.851562 Z M 240.917969 158.851562 " fill-opacity="1" fill-rule="evenodd"/><path fill="#faf9f9" d="M 122.222656 117.621094 C 125.355469 127.074219 137.722656 133.386719 150.320312 139.699219 C 156.632812 127.109375 163.167969 114.527344 160.035156 105.082031 C 156.839844 95.445312 140.183594 95.171875 140.875 109.515625 C 132.8125 98.546875 119.019531 107.992188 122.210938 117.628906 Z M 122.222656 117.621094 " fill-opacity="1" fill-rule="evenodd"/><path fill="#d4dfdf" d="M 224.574219 210.335938 C 222.671875 211.320312 219.3125 213.59375 218.753906 217.589844 C 218.675781 218.105469 218.753906 218.484375 218.933594 218.742188 C 219.15625 219.0625 219.554688 219.34375 220.078125 219.601562 C 220.777344 219.9375 221.648438 220.179688 222.59375 220.308594 C 225.746094 220.75 229.441406 220.128906 231.601562 218.621094 C 233.015625 217.632812 234.296875 216.589844 235.492188 215.617188 L 236.671875 214.660156 L 233.609375 213.910156 L 230.921875 213.09375 C 228.148438 213.9375 224.074219 215.46875 224.074219 215.46875 L 228.121094 212.050781 C 226.875 211.535156 225.683594 210.964844 224.566406 210.347656 Z M 224.574219 210.335938 " fill-opacity="1" fill-rule="evenodd"/><g fill="#0f5765" fill-opacity="1"><g transform="translate(66.468766, 317.788828)"><g><path d="M 2.359375 8.421875 L 2.359375 -25.953125 C 2.359375 -26.847656 2.382812 -27.507812 2.4375 -27.9375 C 2.5 -28.375 2.664062 -28.867188 2.9375 -29.421875 C 3.488281 -30.484375 4.800781 -31.015625 6.875 -31.015625 C 8.957031 -31.015625 10.363281 -30.75 11.09375 -30.21875 C 11.820312 -29.6875 12.242188 -28.910156 12.359375 -27.890625 C 13.847656 -29.929688 16.191406 -30.953125 19.390625 -30.953125 C 22.585938 -30.953125 25.617188 -29.441406 28.484375 -26.421875 C 31.347656 -23.398438 32.78125 -19.890625 32.78125 -15.890625 C 32.78125 -11.890625 31.359375 -8.378906 28.515625 -5.359375 C 25.671875 -2.335938 22.640625 -0.828125 19.421875 -0.828125 C 16.203125 -0.828125 13.867188 -1.726562 12.421875 -3.53125 L 12.421875 8.359375 C 12.421875 9.253906 12.390625 9.914062 12.328125 10.34375 C 12.265625 10.78125 12.085938 11.28125 11.796875 11.84375 C 11.503906 12.414062 11.003906 12.820312 10.296875 13.0625 C 9.585938 13.300781 8.625 13.421875 7.40625 13.421875 C 6.195312 13.421875 5.226562 13.300781 4.5 13.0625 C 3.769531 12.820312 3.257812 12.425781 2.96875 11.875 C 2.675781 11.332031 2.5 10.84375 2.4375 10.40625 C 2.382812 9.976562 2.359375 9.316406 2.359375 8.421875 Z M 14 -19.296875 C 13.101562 -18.242188 12.65625 -17.085938 12.65625 -15.828125 C 12.65625 -14.578125 13.113281 -13.429688 14.03125 -12.390625 C 14.957031 -11.347656 16.132812 -10.828125 17.5625 -10.828125 C 19 -10.828125 20.21875 -11.335938 21.21875 -12.359375 C 22.21875 -13.378906 22.71875 -14.535156 22.71875 -15.828125 C 22.71875 -17.117188 22.242188 -18.285156 21.296875 -19.328125 C 20.359375 -20.367188 19.132812 -20.890625 17.625 -20.890625 C 16.113281 -20.890625 14.90625 -20.359375 14 -19.296875 Z M 14 -19.296875 "/></g></g></g><g fill="#0f5765" fill-opacity="1"><g transform="translate(100.711569, 317.788828)"><g><path d="M 22.484375 -27.71875 C 22.710938 -29.914062 24.257812 -31.015625 27.125 -31.015625 C 28.65625 -31.015625 29.789062 -30.894531 30.53125 -30.65625 C 31.28125 -30.414062 31.800781 -30.003906 32.09375 -29.421875 C 32.394531 -28.835938 32.570312 -28.316406 32.625 -27.859375 C 32.6875 -27.410156 32.71875 -26.734375 32.71875 -25.828125 L 32.71875 -5.234375 C 32.71875 -4.335938 32.6875 -3.660156 32.625 -3.203125 C 32.570312 -2.753906 32.40625 -2.234375 32.125 -1.640625 C 31.582031 -0.628906 30.238281 -0.125 28.09375 -0.125 C 25.957031 -0.125 24.523438 -0.382812 23.796875 -0.90625 C 23.078125 -1.4375 22.65625 -2.210938 22.53125 -3.234375 C 21.082031 -1.160156 18.660156 -0.125 15.265625 -0.125 C 11.878906 -0.125 8.734375 -1.671875 5.828125 -4.765625 C 2.921875 -7.867188 1.46875 -11.46875 1.46875 -15.5625 C 1.46875 -19.664062 2.925781 -23.253906 5.84375 -26.328125 C 8.769531 -29.410156 11.976562 -30.953125 15.46875 -30.953125 C 16.8125 -30.953125 18.03125 -30.71875 19.125 -30.25 C 20.21875 -29.78125 20.976562 -29.335938 21.40625 -28.921875 C 21.84375 -28.503906 22.203125 -28.101562 22.484375 -27.71875 Z M 11.765625 -15.46875 C 11.765625 -14.175781 12.273438 -13.007812 13.296875 -11.96875 C 14.316406 -10.9375 15.550781 -10.421875 17 -10.421875 C 18.457031 -10.421875 19.664062 -10.945312 20.625 -12 C 21.582031 -13.0625 22.0625 -14.226562 22.0625 -15.5 C 22.0625 -16.78125 21.597656 -17.96875 20.671875 -19.0625 C 19.753906 -20.164062 18.519531 -20.71875 16.96875 -20.71875 C 15.425781 -20.71875 14.171875 -20.164062 13.203125 -19.0625 C 12.242188 -17.96875 11.765625 -16.769531 11.765625 -15.46875 Z M 11.765625 -15.46875 "/></g></g></g><g fill="#0f5765" fill-opacity="1"><g transform="translate(135.778087, 317.788828)"><g><path d="M 42.015625 -30.78125 C 44.523438 -29.675781 45.78125 -28.320312 45.78125 -26.71875 C 45.78125 -26.050781 45.460938 -24.976562 44.828125 -23.5 C 44.203125 -22.03125 43.675781 -20.75 43.25 -19.65625 L 36.78125 -3.890625 C 36.1875 -2.160156 35.203125 -0.941406 33.828125 -0.234375 C 33.242188 0.0351562 32.5 0.171875 31.59375 0.171875 C 30.695312 0.171875 29.828125 -0.171875 28.984375 -0.859375 C 28.140625 -1.546875 27.578125 -2.238281 27.296875 -2.9375 L 26.828125 -3.9375 C 26.515625 -4.726562 25.359375 -7.789062 23.359375 -13.125 C 22.960938 -12.175781 22.382812 -10.632812 21.625 -8.5 C 20.863281 -6.363281 20.375 -5.03125 20.15625 -4.5 C 19.9375 -3.96875 19.796875 -3.613281 19.734375 -3.4375 C 19.679688 -3.257812 19.515625 -2.9375 19.234375 -2.46875 C 18.960938 -2 18.648438 -1.585938 18.296875 -1.234375 C 17.359375 -0.296875 16.28125 0.171875 15.0625 0.171875 C 13.84375 0.171875 12.820312 -0.171875 12 -0.859375 C 11.175781 -1.546875 10.628906 -2.238281 10.359375 -2.9375 L 1.46875 -24.59375 C 1.070312 -25.769531 0.875 -26.535156 0.875 -26.890625 C 0.875 -28.460938 1.992188 -29.695312 4.234375 -30.59375 C 5.492188 -31.101562 6.515625 -31.359375 7.296875 -31.359375 C 8.078125 -31.359375 8.710938 -31.191406 9.203125 -30.859375 C 9.691406 -30.523438 10.035156 -30.191406 10.234375 -29.859375 C 10.429688 -29.523438 10.585938 -29.179688 10.703125 -28.828125 C 11.367188 -27.265625 12.765625 -23.578125 14.890625 -17.765625 L 18.359375 -27.296875 C 18.597656 -28.085938 19.03125 -28.773438 19.65625 -29.359375 C 20.789062 -30.492188 21.945312 -31.0625 23.125 -31.0625 C 24.300781 -31.0625 25.3125 -30.75 26.15625 -30.125 C 27 -29.5 27.578125 -28.875 27.890625 -28.25 L 28.359375 -27.25 C 30.328125 -21.75 31.484375 -18.609375 31.828125 -17.828125 L 35.421875 -27.59375 C 36.367188 -30.101562 37.78125 -31.359375 39.65625 -31.359375 C 40.40625 -31.359375 41.191406 -31.164062 42.015625 -30.78125 Z M 42.015625 -30.78125 "/></g></g></g><g fill="#0f5765" fill-opacity="1"><g transform="translate(182.435393, 317.788828)"><g><path d="M 12.0625 -15.5 C 12.0625 -13.832031 12.609375 -12.535156 13.703125 -11.609375 C 14.804688 -10.691406 15.972656 -10.234375 17.203125 -10.234375 C 18.441406 -10.234375 19.597656 -10.597656 20.671875 -11.328125 C 21.753906 -12.054688 22.628906 -12.421875 23.296875 -12.421875 C 24.472656 -12.421875 25.90625 -11.378906 27.59375 -9.296875 C 28.5 -8.160156 28.953125 -7.140625 28.953125 -6.234375 C 28.953125 -4.742188 27.875 -3.351562 25.71875 -2.0625 C 23.476562 -0.488281 20.734375 0.296875 17.484375 0.296875 C 13.828125 0.296875 10.3125 -1.015625 6.9375 -3.640625 C 5.332031 -4.898438 4.019531 -6.578125 3 -8.671875 C 1.976562 -10.773438 1.46875 -13.09375 1.46875 -15.625 C 1.46875 -18.15625 1.976562 -20.445312 3 -22.5 C 4.019531 -24.5625 5.332031 -26.222656 6.9375 -27.484375 C 10.195312 -30.066406 13.671875 -31.359375 17.359375 -31.359375 C 18.847656 -31.359375 20.296875 -31.148438 21.703125 -30.734375 C 23.117188 -30.328125 24.160156 -29.929688 24.828125 -29.546875 L 25.78125 -28.953125 C 26.476562 -28.484375 27.023438 -28.109375 27.421875 -27.828125 C 28.441406 -27.046875 28.953125 -26.15625 28.953125 -25.15625 C 28.953125 -24.15625 28.539062 -23.023438 27.71875 -21.765625 C 26.300781 -19.609375 24.945312 -18.53125 23.65625 -18.53125 C 22.90625 -18.53125 21.847656 -18.960938 20.484375 -19.828125 C 19.773438 -20.492188 18.757812 -20.828125 17.4375 -20.828125 C 16.125 -20.828125 14.898438 -20.351562 13.765625 -19.40625 C 12.628906 -18.46875 12.0625 -17.164062 12.0625 -15.5 Z M 12.0625 -15.5 "/></g></g></g><g fill="#0f5765" fill-opacity="1"><g transform="translate(212.853843, 317.788828)"><g><path d="M 22.484375 -27.71875 C 22.710938 -29.914062 24.257812 -31.015625 27.125 -31.015625 C 28.65625 -31.015625 29.789062 -30.894531 30.53125 -30.65625 C 31.28125 -30.414062 31.800781 -30.003906 32.09375 -29.421875 C 32.394531 -28.835938 32.570312 -28.316406 32.625 -27.859375 C 32.6875 -27.410156 32.71875 -26.734375 32.71875 -25.828125 L 32.71875 -5.234375 C 32.71875 -4.335938 32.6875 -3.660156 32.625 -3.203125 C 32.570312 -2.753906 32.40625 -2.234375 32.125 -1.640625 C 31.582031 -0.628906 30.238281 -0.125 28.09375 -0.125 C 25.957031 -0.125 24.523438 -0.382812 23.796875 -0.90625 C 23.078125 -1.4375 22.65625 -2.210938 22.53125 -3.234375 C 21.082031 -1.160156 18.660156 -0.125 15.265625 -0.125 C 11.878906 -0.125 8.734375 -1.671875 5.828125 -4.765625 C 2.921875 -7.867188 1.46875 -11.46875 1.46875 -15.5625 C 1.46875 -19.664062 2.925781 -23.253906 5.84375 -26.328125 C 8.769531 -29.410156 11.976562 -30.953125 15.46875 -30.953125 C 16.8125 -30.953125 18.03125 -30.71875 19.125 -30.25 C 20.21875 -29.78125 20.976562 -29.335938 21.40625 -28.921875 C 21.84375 -28.503906 22.203125 -28.101562 22.484375 -27.71875 Z M 11.765625 -15.46875 C 11.765625 -14.175781 12.273438 -13.007812 13.296875 -11.96875 C 14.316406 -10.9375 15.550781 -10.421875 17 -10.421875 C 18.457031 -10.421875 19.664062 -10.945312 20.625 -12 C 21.582031 -13.0625 22.0625 -14.226562 22.0625 -15.5 C 22.0625 -16.78125 21.597656 -17.96875 20.671875 -19.0625 C 19.753906 -20.164062 18.519531 -20.71875 16.96875 -20.71875 C 15.425781 -20.71875 14.171875 -20.164062 13.203125 -19.0625 C 12.242188 -17.96875 11.765625 -16.769531 11.765625 -15.46875 Z M 11.765625 -15.46875 "/></g></g></g><g fill="#0f5765" fill-opacity="1"><g transform="translate(247.920361, 317.788828)"><g><path d="M 23.40625 -30.65625 C 24.15625 -30.414062 24.773438 -30.007812 25.265625 -29.4375 C 25.765625 -28.875 26.015625 -27.960938 26.015625 -26.703125 C 26.015625 -25.453125 25.640625 -24.082031 24.890625 -22.59375 C 24.140625 -21.101562 23.0625 -20.359375 21.65625 -20.359375 C 20.945312 -20.359375 20.269531 -20.515625 19.625 -20.828125 C 18.976562 -21.140625 18.125 -21.296875 17.0625 -21.296875 C 16 -21.296875 15.003906 -20.921875 14.078125 -20.171875 C 13.160156 -19.429688 12.703125 -18.535156 12.703125 -17.484375 L 12.703125 -5.125 C 12.703125 -4.21875 12.671875 -3.535156 12.609375 -3.078125 C 12.554688 -2.628906 12.375 -2.113281 12.0625 -1.53125 C 11.476562 -0.507812 9.945312 0 7.46875 0 C 5.59375 0 4.238281 -0.332031 3.40625 -1 C 2.78125 -1.550781 2.429688 -2.394531 2.359375 -3.53125 C 2.359375 -3.925781 2.359375 -4.492188 2.359375 -5.234375 L 2.359375 -25.890625 C 2.359375 -26.796875 2.382812 -27.472656 2.4375 -27.921875 C 2.5 -28.367188 2.664062 -28.867188 2.9375 -29.421875 C 3.488281 -30.484375 5.019531 -31.015625 7.53125 -31.015625 C 9.882812 -31.015625 11.351562 -30.5625 11.9375 -29.65625 C 12.375 -29.03125 12.59375 -28.382812 12.59375 -27.71875 C 12.789062 -27.988281 13.070312 -28.316406 13.4375 -28.703125 C 13.8125 -29.097656 14.609375 -29.628906 15.828125 -30.296875 C 17.046875 -30.972656 18.113281 -31.3125 19.03125 -31.3125 C 19.957031 -31.3125 20.734375 -31.257812 21.359375 -31.15625 C 21.984375 -31.0625 22.664062 -30.894531 23.40625 -30.65625 Z M 23.40625 -30.65625 "/></g></g></g><g fill="#0f5765" fill-opacity="1"><g transform="translate(274.808614, 317.788828)"><g><path d="M 32.25 -19.203125 C 32.25 -16.796875 31.648438 -15.015625 30.453125 -13.859375 C 29.253906 -12.703125 27.929688 -12.125 26.484375 -12.125 L 12.53125 -12.125 C 12.53125 -11.019531 13.175781 -10.09375 14.46875 -9.34375 C 15.769531 -8.601562 17.066406 -8.234375 18.359375 -8.234375 C 20.628906 -8.234375 22.414062 -8.46875 23.71875 -8.9375 L 24.359375 -9.171875 C 25.304688 -9.609375 26.09375 -9.828125 26.71875 -9.828125 C 27.96875 -9.828125 29.046875 -8.941406 29.953125 -7.171875 C 30.460938 -6.117188 30.71875 -5.21875 30.71875 -4.46875 C 30.71875 -0.976562 26.539062 0.765625 18.1875 0.765625 C 15.28125 0.765625 12.695312 0.265625 10.4375 -0.734375 C 8.1875 -1.734375 6.429688 -3.054688 5.171875 -4.703125 C 2.703125 -7.878906 1.46875 -11.429688 1.46875 -15.359375 C 1.46875 -20.296875 3.066406 -24.242188 6.265625 -27.203125 C 9.460938 -30.171875 13.453125 -31.65625 18.234375 -31.65625 C 23.691406 -31.65625 27.695312 -29.734375 30.25 -25.890625 C 31.582031 -23.847656 32.25 -21.617188 32.25 -19.203125 Z M 19.828125 -17.484375 C 21.316406 -17.484375 22.0625 -18.109375 22.0625 -19.359375 C 22.0625 -20.265625 21.71875 -20.988281 21.03125 -21.53125 C 20.34375 -22.082031 19.363281 -22.359375 18.09375 -22.359375 C 16.820312 -22.359375 15.554688 -21.835938 14.296875 -20.796875 C 13.046875 -19.753906 12.421875 -18.648438 12.421875 -17.484375 Z M 19.828125 -17.484375 "/></g></g></g></svg>