<?xml version="1.0" encoding="UTF-8"?>
<svg id="svg4" xmlns="http://www.w3.org/2000/svg" viewBox="0 0 15 15">
  <defs>
    <style>
      .cls-1 {
        fill: #f5f4f3;
        fill-rule: evenodd;
        stroke-width: 0px;
      }
    </style>
  </defs>
  <path id="path2" class="cls-1" d="M4,0h7c2.55,0,3.99,1.45,4,4v7c0,2.55-1.45,4-4,4H4c-2.55,0-4-1.45-4-4V4C0,1.45,1.45,0,4,0ZM7.54,11.89c.32,0,.59-.24.62-.56V3.69c.03-.23-.08-.47-.28-.59-.21-.13-.47-.13-.67,0-.2.13-.32.36-.29.59v7.64c.04.32.31.56.62.56ZM10.99,11.89c.32,0,.58-.24.62-.56v-2.46c.02-.24-.09-.47-.29-.59-.2-.13-.46-.13-.67,0-.2.13-.31.35-.28.59v2.46c.03.32.3.56.62.56ZM4.66,11.33c-.03.32-.3.56-.62.56s-.59-.24-.62-.56v-5.18c-.02-.23.09-.47.29-.59.2-.13.46-.13.66,0,.2.13.32.36.29.59v5.18Z"/>
</svg>