<?xml version="1.0" encoding="UTF-8" standalone="no"?>
<svg
   width="16"
   height="16"
   viewBox="0 0 16 16"
   fill="none"
   version="1.1"
   id="svg4"
   sodipodi:docname="vendas.svg"
   xmlns:inkscape="http://www.inkscape.org/namespaces/inkscape"
   xmlns:sodipodi="http://sodipodi.sourceforge.net/DTD/sodipodi-0.dtd"
   xmlns="http://www.w3.org/2000/svg"
   xmlns:svg="http://www.w3.org/2000/svg">
  <defs
     id="defs8" />
  <sodipodi:namedview
     id="namedview6"
     pagecolor="#ffffff"
     bordercolor="#000000"
     borderopacity="0.25"
     inkscape:showpageshadow="2"
     inkscape:pageopacity="0.0"
     inkscape:pagecheckerboard="0"
     inkscape:deskcolor="#d1d1d1" />
  <path
     fill-rule="evenodd"
     clip-rule="evenodd"
     d="M11.9795 13.9946C12.3477 13.9946 12.659 13.7306 12.719 13.3683L13.8642 6.49459H2.13574L3.28099 13.3683C3.34099 13.7306 3.65224 13.9946 4.02049 13.9946H11.9795ZM14.75 4.99459C14.9705 4.99459 15.1797 5.09134 15.3222 5.25934C15.4647 5.42809 15.5262 5.65009 15.4895 5.86759L14.1987 13.6143C14.0172 14.7033 13.0842 15.4946 11.9795 15.4946H4.02049C2.91574 15.4946 1.98274 14.7033 1.80124 13.6143L0.510486 5.86759C0.473736 5.65009 0.535236 5.42809 0.677736 5.25934C0.820236 5.09134 1.02949 4.99459 1.24999 4.99459H2.41699L5.92249 0.765344C6.18574 0.447344 6.65974 0.401594 6.97849 0.667094C7.29724 0.931844 7.34149 1.40434 7.07749 1.72384L4.36549 4.99459H11.6345L8.92249 1.72384C8.65849 1.40434 8.70274 0.931844 9.02149 0.667094C9.34024 0.400844 9.81349 0.446594 10.0775 0.765344L13.583 4.99459H14.75ZM7.24999 8.74459C7.24999 8.32984 7.58524 7.99459 7.99999 7.99459C8.41474 7.99459 8.74999 8.32984 8.74999 8.74459V11.7446C8.74999 12.1593 8.41474 12.4946 7.99999 12.4946C7.58524 12.4946 7.24999 12.1593 7.24999 11.7446V8.74459ZM11 7.99459C10.5852 7.99459 10.25 8.32984 10.25 8.74459V11.7446C10.25 12.1593 10.5852 12.4946 11 12.4946C11.4147 12.4946 11.75 12.1593 11.75 11.7446V8.74459C11.75 8.32984 11.4147 7.99459 11 7.99459ZM4.24999 8.74459C4.24999 8.32984 4.58524 7.99459 4.99999 7.99459C5.41474 7.99459 5.74999 8.32984 5.74999 8.74459V11.7446C5.74999 12.1593 5.41474 12.4946 4.99999 12.4946C4.58524 12.4946 4.24999 12.1593 4.24999 11.7446V8.74459Z"
     fill="#F5F4F3"
     id="path2" />
</svg>
