<svg width="14" height="14" viewBox="0 0 14 14" fill="none" xmlns="http://www.w3.org/2000/svg">
<g clip-path="url(#clip0_1222_31632)">
<path d="M4.99988 7.25C4.86181 7.25 4.74988 7.13807 4.74988 7C4.74988 6.86193 4.86181 6.75 4.99988 6.75" stroke="#0F5765" stroke-linecap="round" stroke-linejoin="round"/>
<path d="M4.99988 7.25C5.13795 7.25 5.24988 7.13807 5.24988 7C5.24988 6.86193 5.13795 6.75 4.99988 6.75" stroke="#0F5765" stroke-linecap="round" stroke-linejoin="round"/>
<path d="M9.00012 7.25C8.86205 7.25 8.75012 7.13807 8.75012 7C8.75012 6.86193 8.86205 6.75 9.00012 6.75" stroke="#0F5765" stroke-linecap="round" stroke-linejoin="round"/>
<path d="M9.00012 7.25C9.13819 7.25 9.25012 7.13807 9.25012 7C9.25012 6.86193 9.13819 6.75 9.00012 6.75" stroke="#0F5765" stroke-linecap="round" stroke-linejoin="round"/>
<path d="M4.5 13.2092C4.96322 13.3967 5.46955 13.5 6 13.5H8C8.53045 13.5 9.03678 13.3967 9.5 13.2092" stroke="#0F5765" stroke-linecap="round" stroke-linejoin="round"/>
<path d="M2 7.5V0.5L6.15298 3.55633" stroke="#0F5765" stroke-linecap="round" stroke-linejoin="round"/>
<path d="M11.9999 7.5V0.5L7.86047 3.55633" stroke="#0F5765" stroke-linecap="round" stroke-linejoin="round"/>
<path d="M4.01855 4.5C4.75098 3.88625 5.81536 3.5 7.00003 3.5C8.1847 3.5 9.24908 3.88625 9.98151 4.5" stroke="#0F5765" stroke-linecap="round" stroke-linejoin="round"/>
<path d="M0.5 9.5H4" stroke="#0F5765" stroke-linecap="round" stroke-linejoin="round"/>
<path d="M4 11.5L1 13" stroke="#0F5765" stroke-linecap="round" stroke-linejoin="round"/>
<path d="M10 9.5H13.5" stroke="#0F5765" stroke-linecap="round" stroke-linejoin="round"/>
<path d="M10 11.5L13 13" stroke="#0F5765" stroke-linecap="round" stroke-linejoin="round"/>
<path d="M7.75 9.5H6.25L7 10L7.75 9.5Z" stroke="#0F5765" stroke-linecap="round" stroke-linejoin="round"/>
</g>
<defs>
<clipPath id="clip0_1222_31632">
<rect width="14" height="14" fill="white"/>
</clipPath>
</defs>
</svg>
