<?xml version="1.0" encoding="UTF-8"?>
<svg id="svg4" xmlns="http://www.w3.org/2000/svg" viewBox="0 0 15 15">
  <defs>
    <style>
      .cls-1 {
        fill: #f5f4f3;
        fill-rule: evenodd;
        stroke-width: 0px;
      }
    </style>
  </defs>
  <path id="path2" class="cls-1" d="M11.48,13.5c.37,0,.68-.26.74-.63l1.15-6.87H1.64l1.15,6.87c.06.36.37.63.74.63h7.96ZM14.25,4.5c.22,0,.43.1.57.26.14.17.2.39.17.61l-1.29,7.75c-.18,1.09-1.11,1.88-2.22,1.88H3.52c-1.1,0-2.04-.79-2.22-1.88L.01,5.37c-.04-.22.02-.44.17-.61.14-.17.35-.26.57-.26h1.17L5.42.27c.26-.32.74-.36,1.06-.1.32.26.36.74.1,1.06l-2.71,3.27h7.27l-2.71-3.27c-.26-.32-.22-.79.1-1.06.32-.27.79-.22,1.06.1l3.51,4.23h1.17ZM6.75,8.25c0-.41.34-.75.75-.75s.75.34.75.75v3c0,.41-.34.75-.75.75s-.75-.34-.75-.75v-3ZM10.5,7.5c-.41,0-.75.34-.75.75v3c0,.41.34.75.75.75s.75-.34.75-.75v-3c0-.41-.34-.75-.75-.75ZM3.75,8.25c0-.41.34-.75.75-.75s.75.34.75.75v3c0,.41-.34.75-.75.75s-.75-.34-.75-.75v-3Z"/>
</svg>